<svg width="30" height="30" viewBox="0 0 30 30" fill="none" xmlns="http://www.w3.org/2000/svg">
<g clip-path="url(#clip0_110_565)">
<path d="M11.475 25.8733C11.475 25.8733 4.005 19.3433 4.005 13.7433C3.96827 12.74 4.13417 11.7395 4.49278 10.8018C4.85139 9.86405 5.39535 9.00822 6.09217 8.28543C6.78898 7.56264 7.62434 6.98773 8.54834 6.59506C9.47235 6.20238 10.466 6 11.47 6C12.474 6 13.4677 6.20238 14.3917 6.59506C15.3157 6.98773 16.151 7.56264 16.8478 8.28543C17.5446 9.00822 18.0886 9.86405 18.4472 10.8018C18.8058 11.7395 18.9717 12.74 18.935 13.7433" stroke="#8A8278" stroke-width="1.5" stroke-miterlimit="10"/>
<path d="M22.675 20.2734V26.8134H13.335V20.2734" stroke="#8A8278" stroke-width="1.5" stroke-miterlimit="10"/>
<path d="M18.0049 23.0732V26.8132" stroke="#8A8278" stroke-width="1.5" stroke-miterlimit="10"/>
<path d="M11.4748 16.5434C13.0212 16.5434 14.2748 15.2898 14.2748 13.7434C14.2748 12.197 13.0212 10.9434 11.4748 10.9434C9.92841 10.9434 8.6748 12.197 8.6748 13.7434C8.6748 15.2898 9.92841 16.5434 11.4748 16.5434Z" stroke="#8A8278" stroke-width="1.5" stroke-miterlimit="10"/>
<path d="M11.0049 22.6133L18.0049 15.6133L25.0049 22.6133" stroke="#8A8278" stroke-width="1.5" stroke-miterlimit="10"/>
</g>
<defs>
<clipPath id="clip0_110_565">
<rect width="24" height="24" fill="white" transform="translate(3 3)"/>
</clipPath>
</defs>
</svg>
