<svg width="30" height="30" viewBox="0 0 30 30" fill="none" xmlns="http://www.w3.org/2000/svg">
<g clip-path="url(#clip0_103_466)">
<path d="M4.47998 26.5V23.63C4.47998 21.8548 5.1845 20.1521 6.43883 18.8959C7.69316 17.6397 9.39476 16.9326 11.17 16.93H16.91C17.1621 16.93 17.4118 16.9797 17.6447 17.0762C17.8777 17.1726 18.0893 17.3141 18.2676 17.4924C18.4459 17.6706 18.5873 17.8823 18.6838 18.1152C18.7803 18.3482 18.83 18.5979 18.83 18.85C18.8273 19.3575 18.6239 19.8433 18.2641 20.2012C17.9043 20.5591 17.4175 20.76 16.91 20.76H17.91L22.1 16.57C22.4716 16.2066 22.9702 16.0021 23.49 16C24.0204 16 24.5291 16.2107 24.9042 16.5858C25.2793 16.9609 25.49 17.4696 25.49 18C25.4915 18.2656 25.4401 18.5288 25.3388 18.7744C25.2375 19.0199 25.0883 19.2428 24.9 19.43L20.9 23.43C20.1828 24.1447 19.2124 24.5472 18.2 24.55H14C13.7491 24.5552 13.5018 24.6098 13.272 24.7106C13.0423 24.8114 12.8347 24.9565 12.661 25.1376C12.4873 25.3187 12.3511 25.5322 12.26 25.766C12.1688 25.9997 12.1247 26.2492 12.13 26.5" stroke="#8A8278" stroke-width="1.5" stroke-miterlimit="10"/>
<path d="M19.7902 10.0303H10.2202V16.9403H19.7902V10.0303Z" stroke="#8A8278" stroke-width="1.5" stroke-miterlimit="10"/>
<path d="M14.9998 4.5L9.25977 10.03H20.7398L14.9998 4.5Z" stroke="#8A8278" stroke-width="1.5" stroke-miterlimit="10"/>
<path d="M15.95 14.0703H14.04V16.9403H15.95V14.0703Z" stroke="#8A8278" stroke-width="1.5" stroke-miterlimit="10"/>
</g>
<defs>
<clipPath id="clip0_103_466">
<rect width="24" height="24" fill="white" transform="translate(3 3)"/>
</clipPath>
</defs>
</svg>
