<svg width="30" height="30" viewBox="0 0 30 30" fill="none" xmlns="http://www.w3.org/2000/svg">
<path d="M23 12V26H7V12" stroke="#8A8278" stroke-width="1.5" stroke-miterlimit="10"/>
<path d="M26 14L15 5L4 14" stroke="#8A8278" stroke-width="1.5" stroke-miterlimit="10"/>
<path d="M15.4998 15.4998L14.9998 15.9998L14.4998 15.4998C14.3029 15.3027 14.0691 15.1463 13.8117 15.0396C13.5543 14.9329 13.2784 14.8779 12.9998 14.8779C12.7212 14.8779 12.4453 14.9329 12.1879 15.0396C11.9305 15.1463 11.6967 15.3027 11.4998 15.4998C11.3027 15.6967 11.1463 15.9305 11.0396 16.1879C10.9329 16.4453 10.8779 16.7212 10.8779 16.9998C10.8779 17.2784 10.9329 17.5543 11.0396 17.8117C11.1463 18.0691 11.3027 18.3029 11.4998 18.4998L11.9998 18.9998L14.9998 21.9998L17.9998 18.9998L18.4998 18.4998C18.6969 18.3029 18.8533 18.0691 18.96 17.8117C19.0667 17.5543 19.1217 17.2784 19.1217 16.9998C19.1217 16.7212 19.0667 16.4453 18.96 16.1879C18.8533 15.9305 18.6969 15.6967 18.4998 15.4998C18.3029 15.3027 18.0691 15.1463 17.8117 15.0396C17.5543 14.9329 17.2784 14.8779 16.9998 14.8779C16.7212 14.8779 16.4453 14.9329 16.1879 15.0396C15.9305 15.1463 15.6967 15.3027 15.4998 15.4998Z" stroke="#8A8278" stroke-width="1.5" stroke-miterlimit="10"/>
</svg>
