<svg width="30" height="30" viewBox="0 0 30 30" fill="none" xmlns="http://www.w3.org/2000/svg">
<path d="M27 26.0088H3" stroke="#A6A098" stroke-width="1.5" stroke-miterlimit="10"/>
<path d="M23.1225 12.0178L25.8369 9.2929L25.1243 8.59072C24.8473 8.30901 24.517 8.08528 24.1526 7.93255C23.7882 7.77983 23.3971 7.70117 23.002 7.70117C22.6069 7.70117 22.2158 7.77983 21.8514 7.93255C21.4871 8.08528 21.1567 8.30901 20.8797 8.59072C20.6006 8.86915 20.3791 9.19993 20.2279 9.56411C20.0768 9.92828 19.999 10.3187 19.999 10.713C19.999 11.1073 20.0768 11.4977 20.2279 11.8619C20.3791 12.226 20.6006 12.5568 20.8797 12.8353" stroke="#A6A098" stroke-width="1.5" stroke-miterlimit="10"/>
<path d="M16.8763 12.0171L14.1724 9.29221L14.885 8.59003C15.4632 8.12178 16.1948 7.88527 16.9376 7.92648C17.6804 7.96769 18.3814 8.28368 18.9041 8.813C19.4269 9.34232 19.7342 10.0471 19.7662 10.7904C19.7981 11.5337 19.5526 12.2623 19.0772 12.8346" stroke="#A6A098" stroke-width="1.5" stroke-miterlimit="10"/>
<path d="M19.999 15.0039V26.0083" stroke="#A6A098" stroke-width="1.5" stroke-miterlimit="10"/>
<path d="M6.99299 9.99476C8.64839 9.99476 9.99036 8.65279 9.99036 6.99738C9.99036 5.34197 8.64839 4 6.99299 4C5.33758 4 3.99561 5.34197 3.99561 6.99738C3.99561 8.65279 5.33758 9.99476 6.99299 9.99476Z" stroke="#A6A098" stroke-width="1.5" stroke-miterlimit="10"/>
<path d="M23.0069 16.0523H26.0043V15.0042C26.0043 14.2093 25.6885 13.4469 25.1264 12.8848C24.5642 12.3226 23.8018 12.0069 23.0069 12.0069C22.6124 12.0055 22.2215 12.082 21.8566 12.232C21.4917 12.382 21.1601 12.6026 20.8806 12.8811C20.6012 13.1595 20.3795 13.4904 20.2282 13.8548C20.0769 14.2191 19.999 14.6097 19.999 15.0042V16.0523" stroke="#A6A098" stroke-width="1.5" stroke-miterlimit="10"/>
<path d="M17.0018 16.0523H14.0044V15.0042C14.0044 14.2093 14.3202 13.4469 14.8823 12.8847C15.4444 12.3226 16.2068 12.0068 17.0018 12.0068C17.7967 12.0068 18.5591 12.3226 19.1212 12.8847C19.6834 13.4469 19.9992 14.2093 19.9992 15.0042V16.0523" stroke="#A6A098" stroke-width="1.5" stroke-miterlimit="10"/>
</svg>
