<svg width="30" height="30" viewBox="0 0 30 30" fill="none" xmlns="http://www.w3.org/2000/svg">
<path d="M3 13.8182L15 4L27 13.8182" stroke="#A6A098" stroke-width="1.5" stroke-miterlimit="10"/>
<path d="M23.7275 10.5459V26.9095H6.27295V10.5459" stroke="#A6A098" stroke-width="1.5" stroke-miterlimit="10"/>
<path d="M25.909 26.9092H4.09082" stroke="#A6A098" stroke-width="1.5" stroke-miterlimit="10"/>
<path d="M9.54541 13.8184H10.3854C11.6093 13.8184 12.783 14.3045 13.6484 15.1699C14.5138 16.0353 15 17.2091 15 18.4329V19.2729H14.16C12.9361 19.2729 11.7624 18.7867 10.897 17.9213C10.0316 17.0559 9.54541 15.8822 9.54541 14.6584V13.8184Z" stroke="#A6A098" stroke-width="1.5" stroke-miterlimit="10"/>
<path d="M15.8405 20.3633H15.0005V19.5233C15.0005 18.9173 15.1199 18.3172 15.3518 17.7574C15.5837 17.1975 15.9236 16.6888 16.3521 16.2603C16.7806 15.8318 17.2893 15.4919 17.8492 15.26C18.409 15.0281 19.0091 14.9087 19.6151 14.9087H20.4551V15.7487C20.4551 16.9726 19.9689 18.1463 19.1035 19.0117C18.2381 19.8771 17.0644 20.3633 15.8405 20.3633Z" stroke="#A6A098" stroke-width="1.5" stroke-miterlimit="10"/>
<path d="M15 25.818V18.1816" stroke="#A6A098" stroke-width="1.5" stroke-miterlimit="10"/>
</svg>
